# xmcd
#
# Track frame offsets:
#	150
#	15878
#	33490
#	51322
#	66701
#	87966
#	106723
#	122921
#	146792
#	162619
#	177562
#	200379
#	223329
#	244599
#	262734
#	282462
#	302888
#	322888
#
# Disc length: 4591
#
# Revision: 1
# Processed by: cddbd v1.5.2PL0 Copyright (c) Steve Scherf et al.
# Submitted via: Broken X Disk Manager 4.02.2262
#
DISCID=1011ed12
DTITLE=Алла Пугачева - Алла в Рождественских встречах 3
DYEAR=2002
DGENRE=Rhythmic Soul
TTITLE0=Äà, äà, íåò, äà
TTITLE1=Ñâèðåëü
TTITLE2=Áåññîííèöà
TTITLE3=Íå äåëàéòå ìíå áîëüíî
TTITLE4=Ïîëêîâíèê
TTITLE5=À òû íå çíàë
TTITLE6=Áåæàëà ãîëîâó ñëîìÿ
TTITLE7=Êóäà âñå óõîäÿò
TTITLE8=Â âîäó âîéäó
TTITLE9=Êîëäóí
TTITLE10=Ñ÷àñòüå
TTITLE11=Ïåñíÿ î Ìîñêâå
TTITLE12=Ìû â ýòîé æèçíè òîëüêî ãîñòè
TTITLE13=Áåëûé ñíåã
TTITLE14=Ãîëóáêà
TTITLE15=Äåâî÷êà ñåêîíä-õýíä
TTITLE16=Ìàäàì Áðîøêèíà
TTITLE17=Ñâå÷à ãîðåëà íà ñòîëå
EXTD=YEAR: 2002
EXTT0=
EXTT1=
EXTT2=
EXTT3=
EXTT4=
EXTT5=
EXTT6=
EXTT7=
EXTT8=
EXTT9=
EXTT10=
EXTT11=
EXTT12=
EXTT13=
EXTT14=
EXTT15=
EXTT16=
EXTT17=
PLAYORDER=
